<?xml version="1.0" encoding="UTF-8"?>
<svg version="1.1" xmlns="http://www.w3.org/2000/svg" width="3599" height="871">
<path d="M0 0 C0.66 0 1.32 0 2 0 C0.65471168 6.65818709 -1.22905444 12.88400857 -3.52734375 19.26953125 C-4.24049472 21.29063233 -4.95226865 23.31221969 -5.6628418 25.33422852 C-6.03436371 26.38957794 -6.40588562 27.44492737 -6.78866577 28.53225708 C-19.09932953 63.682644 -28.08977188 99.24126415 -34 136 C-34.30574368 137.79821891 -34.61170693 139.59640051 -34.91796875 141.39453125 C-35.76654207 146.58048665 -36.41121263 151.77874188 -37 157 C-37.13535156 158.15435547 -37.27070312 159.30871094 -37.41015625 160.49804688 C-39.82165107 181.97338585 -40.29353986 203.40324743 -40.3125 225 C-40.31599457 226.27149902 -40.31948914 227.54299805 -40.3230896 228.85302734 C-40.35125364 247.32863693 -39.50422717 265.59207306 -38 284 C-42.23867707 283.14773729 -44.71286298 280.93860776 -47.875 278.125 C-52.55419785 274.06104612 -57.29730588 270.12037762 -62.1875 266.3125 C-62.77474854 265.85472168 -63.36199707 265.39694336 -63.96704102 264.92529297 C-65.11160535 264.03342049 -66.25637405 263.1418102 -67.40136719 262.25048828 C-69.72063453 260.43630268 -72.0170477 258.59417917 -74.3125 256.75 C-77.33268182 254.32500059 -80.37171296 251.92954759 -83.4375 249.5625 C-86.88642435 246.89492488 -90.26232433 244.15046901 -93.625 241.375 C-97.64444328 238.06786313 -101.71446245 234.9522592 -106 232 C-108.93529349 233.32483081 -111.01037418 234.76144662 -113.28051758 237.03759766 C-113.89828568 237.65228912 -114.51605377 238.26698059 -115.15254211 238.90029907 C-115.80989853 239.564841 -116.46725494 240.22938293 -117.14453125 240.9140625 C-117.83254318 241.60253265 -118.52055511 242.29100281 -119.22941589 243.00033569 C-120.68502068 244.45895983 -122.13819597 245.92001191 -123.58911133 247.38330078 C-125.78878304 249.60108772 -127.99620887 251.81090877 -130.20507812 254.01953125 C-131.62286572 255.44224022 -133.04019781 256.86540331 -134.45703125 258.2890625 C-135.43395683 259.26765732 -135.43395683 259.26765732 -136.43061829 260.26602173 C-140.20981342 264.08365717 -143.78932467 268.01794201 -147.30213928 272.08099365 C-149.91966035 275.03944572 -152.70613073 277.81121924 -155.51953125 280.58203125 C-156.10417648 281.16288986 -156.68882172 281.74374847 -157.29118347 282.34220886 C-159.1291656 284.16813673 -160.97040095 285.99072623 -162.8125 287.8125 C-165.25939957 290.23278562 -167.70294397 292.65638806 -170.14453125 295.08203125 C-170.70284134 295.632043 -171.26115143 296.18205475 -171.83638 296.74873352 C-174.17648566 299.07391128 -176.16301321 301.24451981 -178 304 C-178.66 304 -179.32 304 -180 304 C-180.39622055 304.88468712 -180.39622055 304.88468712 -180.80044556 305.7872467 C-182.04642546 308.08563853 -183.3376347 309.57310005 -185.19287109 311.40405273 C-185.84049408 312.04829697 -186.48811707 312.6925412 -187.15536499 313.35630798 C-187.85432892 314.04181229 -188.55329285 314.72731659 -189.2734375 315.43359375 C-189.99359039 316.14854507 -190.71374329 316.8634964 -191.45571899 317.60011292 C-193.75744889 319.88404231 -196.06574256 322.16118386 -198.375 324.4375 C-200.67626147 326.71107893 -202.97602898 328.98611821 -205.27285767 331.26417542 C-206.70137313 332.68050749 -208.13255372 334.09415798 -209.56674194 335.50474548 C-212.95079624 338.8550025 -216.10796412 342.20328264 -219 346 C-220.625 347.8125 -220.625 347.8125 -222 349 C-222.66 349 -223.32 349 -224 349 C-224.26982697 349.59547134 -224.53965393 350.19094269 -224.81765747 350.80445862 C-225.99564141 352.99190635 -227.15701398 354.39361683 -228.91748047 356.12866211 C-229.5050412 356.71284409 -230.09260193 357.29702606 -230.69796753 357.89891052 C-231.33131012 358.51879349 -231.96465271 359.13867645 -232.6171875 359.77734375 C-233.27075226 360.42570694 -233.92431702 361.07407013 -234.59768677 361.74208069 C-236.68542727 363.81203192 -238.77972314 365.87517984 -240.875 367.9375 C-242.96228014 369.99708141 -245.04805704 372.05812857 -247.13088989 374.12220764 C-248.42585347 375.40500488 -249.72348118 376.68511999 -251.0241394 377.96214294 C-253.62892927 380.53828715 -256.03590224 383.045663 -258.30517578 385.93188477 C-258.86446777 386.61436279 -259.42375977 387.29684082 -260 388 C-260.66 388 -261.32 388 -262 388 C-262.39807861 388.88654518 -262.39807861 388.88654518 -262.80419922 389.79100037 C-264.03528242 392.06517713 -265.29821506 393.53391517 -267.1328125 395.34399414 C-267.76687012 395.974673 -268.40092773 396.60535187 -269.05419922 397.25514221 C-269.73756348 397.92504684 -270.42092773 398.59495148 -271.125 399.28515625 C-271.8277002 399.98265488 -272.53040039 400.6801535 -273.25439453 401.39878845 C-275.49823298 403.6248283 -277.74864255 405.84406697 -280 408.0625 C-282.25048254 410.28535599 -284.49949057 412.50965376 -286.74560547 414.73692322 C-288.14292265 416.12199465 -289.54290451 417.50438407 -290.94580078 418.88380432 C-291.89688721 419.82509438 -291.89688721 419.82509438 -292.8671875 420.78540039 C-293.70419189 421.61002525 -293.70419189 421.61002525 -294.55810547 422.4513092 C-296.2138578 424.14637418 -296.2138578 424.14637418 -298 427 C-298.66 427 -299.32 427 -300 427 C-300.39955147 427.88801804 -300.39955147 427.88801804 -300.80717468 428.79397583 C-302.02655701 431.04911482 -303.26684851 432.50273214 -305.08520508 434.29638672 C-305.70957962 434.91738251 -306.33395416 435.5383783 -306.97724915 436.17819214 C-307.65120224 436.83868561 -308.32515533 437.49917908 -309.01953125 438.1796875 C-309.71511642 438.87007111 -310.4107016 439.56045471 -311.12736511 440.27175903 C-313.35104602 442.47764377 -315.58128308 444.67674014 -317.8125 446.875 C-320.03216028 449.06694165 -322.25031215 451.26035581 -324.46549988 453.45681763 C-325.84283866 454.82201239 -327.22284176 456.1845261 -328.60591125 457.54391479 C-331.50816698 460.41626605 -334.28377079 463.27702846 -336.83862305 466.46533203 C-337.55187744 467.30177246 -338.26513184 468.13821289 -339 469 C-339.66 469 -340.32 469 -341 469 C-341.25566238 469.58130676 -341.51132477 470.16261353 -341.7747345 470.76153564 C-343.12300616 473.22472265 -344.60915597 474.84324446 -346.60424805 476.81542969 C-347.34229172 477.5500946 -348.08033539 478.28475952 -348.84074402 479.04168701 C-349.63966568 479.82714905 -350.43858734 480.61261108 -351.26171875 481.421875 C-352.4977459 482.65009979 -352.4977459 482.65009979 -353.75874329 483.90313721 C-356.39696474 486.52354537 -359.04174824 489.13719688 -361.6875 491.75 C-364.31457069 494.34933098 -366.94013049 496.95014188 -369.56269836 499.55401611 C-371.19382724 501.17302512 -372.82762115 502.78935517 -374.46452332 504.40252686 C-378.61011831 508.51220468 -382.55543737 512.7111396 -386.36195374 517.13586426 C-388.8947574 520.01825528 -391.60246794 522.70781083 -394.3359375 525.3984375 C-394.90075836 525.95947174 -395.46557922 526.52050598 -396.04751587 527.09854126 C-397.82088407 528.85986308 -399.59751167 530.61783688 -401.375 532.375 C-403.73984331 534.71327915 -406.10136242 537.05484369 -408.4609375 539.3984375 C-409.0025351 539.93173676 -409.54413269 540.46503601 -410.10214233 541.01449585 C-412.90213794 543.74014611 -412.90213794 543.74014611 -415 547 C-415.66 547 -416.32 547 -417 547 C-417.33 547.99 -417.66 548.98 -418 550 C-418.66 550 -419.32 550 -420 550 C-420.39622055 550.88468712 -420.39622055 550.88468712 -420.80044556 551.7872467 C-422.04642546 554.08563853 -423.3376347 555.57310005 -425.19287109 557.40405273 C-425.84049408 558.04829697 -426.48811707 558.6925412 -427.15536499 559.35630798 C-427.85432892 560.04181229 -428.55329285 560.72731659 -429.2734375 561.43359375 C-429.99359039 562.14854507 -430.71374329 562.8634964 -431.45571899 563.60011292 C-433.75744889 565.88404231 -436.06574256 568.16118386 -438.375 570.4375 C-440.67626147 572.71107893 -442.97602898 574.98611821 -445.27285767 577.26417542 C-446.70137313 578.68050749 -448.13255372 580.09415798 -449.56674194 581.50474548 C-452.95079624 584.8550025 -456.10796412 588.20328264 -459 592 C-460.625 593.8125 -460.625 593.8125 -462 595 C-462.66 595 -463.32 595 -464 595 C-464.2364624 595.56315918 -464.4729248 596.12631836 -464.71655273 596.70654297 C-466.29607012 599.52906271 -468.22435184 601.43189874 -470.53515625 603.6953125 C-471.42654297 604.57574219 -472.31792969 605.45617187 -473.23632812 606.36328125 C-474.16896484 607.27464844 -475.10160156 608.18601562 -476.0625 609.125 C-477.90972167 610.93789615 -479.75488421 612.75289358 -481.59765625 614.5703125 C-482.41758057 615.37227051 -483.23750488 616.17422852 -484.08227539 617.00048828 C-486.0514634 618.85596361 -486.0514634 618.85596361 -487 621 C-488.32 621 -489.64 621 -491 621 C-491 620.34 -491 619.68 -491 619 C-491.55171875 618.76667969 -492.1034375 618.53335938 -492.671875 618.29296875 C-495.61255267 616.65980716 -497.79077251 614.60660793 -500.25 612.3125 C-501.23779303 611.39921125 -502.22607617 610.48645231 -503.21484375 609.57421875 C-504.13394531 608.72472656 -505.05304688 607.87523437 -506 607 C-509.69226792 603.69639186 -513.4485086 600.46797174 -517.21875 597.25390625 C-518.41680775 596.2319362 -519.6147201 595.20979569 -520.8125 594.1875 C-521.72153076 593.41176636 -521.72153076 593.41176636 -522.64892578 592.62036133 C-526.39032262 589.4152347 -530.06098478 586.14806271 -533.6875 582.8125 C-537.16136309 579.62263156 -540.69910025 576.57951106 -544.375 573.625 C-549.1714071 569.75781137 -553.6704146 565.65019284 -558.16357422 561.44189453 C-561.51081785 558.32460664 -564.92995906 555.36433518 -568.5 552.5 C-573.26108478 548.68005989 -577.71273025 544.61061181 -582.1640625 540.44140625 C-585.51116869 537.32431446 -588.93014141 534.36418887 -592.5 531.5 C-597.26108478 527.68005989 -601.71273025 523.61061181 -606.1640625 519.44140625 C-609.51116869 516.32431446 -612.93014141 513.36418887 -616.5 510.5 C-620.6666621 507.15698041 -624.60419812 503.64884863 -628.5 500 C-633.26088994 495.54125556 -638.1646782 491.3620217 -643.25390625 487.27734375 C-646.79678299 484.33922549 -650.15441772 481.21768822 -653.52197266 478.08349609 C-656.73316873 475.11269934 -660.02636841 472.30031679 -663.4375 469.5625 C-668.21621628 465.71889943 -672.69157687 461.63039836 -677.16381836 457.44165039 C-680.51099327 454.32446055 -683.93005023 451.36426202 -687.5 448.5 C-691.66666457 445.15697842 -695.60417858 441.64883069 -699.5 438 C-704.27968303 433.52405676 -709.20166045 429.32213745 -714.30859375 425.21875 C-718.14833079 422.05333543 -721.7964401 418.69326909 -725.4609375 415.328125 C-729.97256119 411.19131313 -734.59985491 407.19389177 -739.25390625 403.21875 C-745.49980717 397.88330038 -751.70122591 392.51648623 -757.7890625 387 C-762.21428488 382.99697198 -766.72053368 379.09005818 -771.2578125 375.21484375 C-781.96476136 366.06993606 -781.96476136 366.06993606 -787 361.5 C-793.80388004 355.32981467 -800.82174671 349.40687595 -807.81591797 343.45458984 C-813.84896174 338.31907761 -819.85306255 333.17454692 -825.6875 327.8125 C-829.18259889 324.60354956 -832.7428384 321.53934163 -836.4375 318.5625 C-840.97316443 314.90428985 -845.2570117 311.05257035 -849.51928711 307.08618164 C-853.59513244 303.31571209 -857.8550636 299.82169562 -862.18359375 296.34375 C-865.95233042 293.20749202 -869.54262704 289.89553405 -873.1171875 286.54101562 C-875.839287 283.96889661 -875.839287 283.96889661 -879 282 C-879 280.68 -879 279.36 -879 278 C-860.17144437 277.78930702 -841.34312953 277.63083111 -822.51363754 277.53369045 C-813.76975737 277.48737744 -805.02661169 277.42429254 -796.28320312 277.32104492 C-788.65808797 277.23104611 -781.03350496 277.17320732 -773.40787339 277.15320355 C-769.37370012 277.14151845 -765.34104852 277.1142656 -761.30736542 277.04842949 C-757.50165121 276.98682404 -753.69806844 276.96859566 -749.89190292 276.98203087 C-748.50357554 276.97957735 -747.11516857 276.96197505 -745.72727585 276.92715073 C-734.7044194 276.66439921 -728.98736646 279.8786891 -721 287 C-719.70026561 287.99561512 -718.39203964 288.98054463 -717.06640625 289.94140625 C-708.50675877 296.34196057 -699.9949669 302.80346484 -691.49829102 309.28735352 C-686.10341899 313.40268837 -680.69049202 317.49074209 -675.25390625 321.55078125 C-671.70271399 324.2138871 -668.18059473 326.91491555 -664.65429688 329.61083984 C-656.02996607 336.20308983 -647.35552219 342.71540486 -638.60107422 349.13378906 C-633.17450602 353.11790952 -627.8245971 357.18386917 -622.50390625 361.30859375 C-618.03953045 364.75466227 -613.51611329 368.12223028 -609 371.5 C-602.35162774 376.47377064 -595.74152804 381.48909825 -589.171875 386.56640625 C-585.63478664 389.2802068 -582.07075323 391.95576483 -578.5 394.625 C-572.2221758 399.31808621 -565.97960576 404.05561698 -559.75 408.8125 C-552.85752941 414.07445331 -545.94375225 419.30590864 -539 424.5 C-532.05623888 429.69409799 -525.1431179 434.92638585 -518.25 440.1875 C-516.50655961 441.51568957 -514.76307091 442.84381574 -513.01953125 444.171875 C-509.76130183 446.65421623 -506.50965373 449.14483621 -503.26171875 451.640625 C-501.82053926 452.73988069 -500.37914587 453.83885603 -498.9375 454.9375 C-498.2887793 455.43983154 -497.64005859 455.94216309 -496.97167969 456.4597168 C-492.88894157 459.76637825 -492.88894157 459.76637825 -488 461 C-485.9805044 459.46821197 -484.36803681 458.01034746 -482.62060547 456.20410156 C-482.09654114 455.68237366 -481.57247681 455.16064575 -481.03253174 454.62310791 C-479.29849974 452.89069433 -477.58297948 451.1410906 -475.8671875 449.390625 C-474.66802327 448.18467327 -473.46782364 446.97975029 -472.26663208 445.77581787 C-469.10294123 442.59869166 -465.95497725 439.4063955 -462.80957031 436.21118164 C-460.2403849 433.60665534 -457.66012129 431.01326426 -455.07919121 428.42038345 C-452.00461209 425.33100657 -448.93527534 422.23644697 -445.8671875 419.140625 C-445.28064266 418.54916939 -444.69409782 417.95771378 -444.0897789 417.34833527 C-442.43055192 415.67281919 -440.77495136 413.99381063 -439.12060547 412.31347656 C-438.38340775 411.56988892 -438.38340775 411.56988892 -437.63131714 410.8112793 C-435.48370356 408.62274145 -433.70926829 406.56390243 -432 404 C-431.34 404 -430.68 404 -430 404 C-429.67 403.01 -429.34 402.02 -429 401 C-427.5625 399.3125 -427.5625 399.3125 -426 398 C-425.34 398 -424.68 398 -424 398 C-423.67 397.01 -423.34 396.02 -423 395 C-422.34 395 -421.68 395 -421 395 C-420.67 394.01 -420.34 393.02 -420 392 C-418.5625 390.3125 -418.5625 390.3125 -417 389 C-416.34 389 -415.68 389 -415 389 C-414.67 388.01 -414.34 387.02 -414 386 C-413.34 386 -412.68 386 -412 386 C-411.67 385.01 -411.34 384.02 -411 383 C-410.34 383 -409.68 383 -409 383 C-408.62415252 382.13659327 -408.62415252 382.13659327 -408.24071217 381.25574398 C-406.82933511 378.68971345 -405.22200742 376.97603456 -403.14860535 374.90809631 C-401.94368187 373.69904884 -401.94368187 373.69904884 -400.7144165 372.46557617 C-399.83179138 371.5901416 -398.94916626 370.71470703 -398.03979492 369.81274414 C-397.11119156 368.88384872 -396.1825882 367.95495331 -395.22584534 366.99790955 C-392.68058149 364.45207182 -390.12919603 361.91244995 -387.57667708 359.37388921 C-384.90351862 356.7132497 -382.2360383 354.04692981 -379.56794739 351.38121033 C-374.50994275 346.32942368 -369.44686413 341.28275422 -364.38194209 336.23790401 C-358.63630463 330.51455108 -352.89627858 324.78558483 -347.15675199 319.05610478 C-337.33960007 309.25632771 -327.51823304 299.46079374 -317.69216919 289.66995239 C-316.12240018 288.10577276 -314.55279953 286.54142415 -312.98341942 284.97685432 C-311.77798015 283.77540505 -310.57198611 282.5745116 -309.36498451 281.37463188 C-307.26078642 279.27975036 -305.235455 277.19107664 -303.375 274.875 C-299.78723404 270.53191489 -299.78723404 270.53191489 -298 269 C-297.34 269 -296.68 269 -296 269 C-295.7525 268.38125 -295.505 267.7625 -295.25 267.125 C-293.76259631 264.59641373 -292.56321991 264.28160996 -290 263 C-289.67 262.34 -289.34 261.68 -289 261 C-287.73577236 258.47154472 -286.47154472 258.23577236 -284 257 C-283.70339792 256.39898342 -283.40679585 255.79796684 -283.10120583 255.17873764 C-281.8368907 252.67728797 -280.36393301 251.11783743 -278.38070679 249.14019775 C-277.62909775 248.38583939 -276.87748871 247.63148102 -276.10310364 246.85426331 C-275.27807846 246.03642868 -274.45305328 245.21859406 -273.60302734 244.37597656 C-272.73466751 243.50732468 -271.86630768 242.63867279 -270.97163391 241.74369812 C-268.59317713 239.36639527 -266.21037174 236.99361503 -263.8255229 234.62273502 C-261.33287405 232.14259535 -258.8458942 229.65678433 -256.35830688 227.17156982 C-251.64850647 222.46798362 -246.93363139 217.76951859 -242.21691096 213.07287288 C-236.84663682 207.72495955 -231.48204593 202.37136075 -226.11792445 197.01727724 C-215.08492704 186.0051805 -204.04481573 175.00024404 -193 164 C-194.32176355 160.03470934 -196.20935047 159.10180493 -199.5625 156.625 C-200.75416316 155.73254664 -201.94419401 154.83791067 -203.1328125 153.94140625 C-203.76348633 153.46590332 -204.39416016 152.99040039 -205.04394531 152.50048828 C-208.39993466 149.92611103 -211.66590584 147.24275619 -214.9375 144.5625 C-220.47692439 140.03450778 -226.05965074 135.57212713 -231.7019043 131.1730957 C-236.96575669 127.05690509 -242.12656639 122.81873875 -247.28735352 118.57446289 C-251.77512512 114.91249875 -256.36989228 111.55350686 -261.27734375 108.46484375 C-263.3460542 106.70573623 -263.46645281 105.59535679 -264 103 C-263.41661865 102.95101562 -262.8332373 102.90203125 -262.23217773 102.8515625 C-196.56511323 97.01393094 -129.49264273 75.57991193 -71.50390625 44.38671875 C-68.07864086 42.5508463 -64.61502755 40.8363424 -61.10546875 39.16894531 C-41.3340778 29.69599272 -15.68283262 15.68283262 0 0 Z " fill="#FEFEFE" transform="translate(977,128)"/>
<path d="M0 0 C39.6 0 79.2 0 120 0 C130.37131414 36.21899342 130.37131414 36.21899342 134.734375 51.47265625 C137.73932645 61.97814875 140.74481343 72.48348581 143.75390625 82.98779297 C145.9460335 90.64020131 148.1362551 98.29315214 150.3242619 105.94673967 C151.48109301 109.99305851 152.63882774 114.03911348 153.79885101 118.08451843 C154.89446965 121.90543617 155.98750636 125.72708367 157.07870865 129.54926491 C157.47601232 130.93928515 157.874196 132.32905427 158.2734108 133.71852684 C161.06305022 143.43063664 163.60250653 153.18544479 166 163 C167.98 163 169.96 163 172 163 C172.10362508 162.4242605 172.20725016 161.848521 172.31401539 161.25533485 C173.65140847 154.17903894 175.51133185 147.31813279 177.51245117 140.40380859 C177.86238129 139.18268875 178.2123114 137.96156891 178.57284546 136.70344543 C179.52617067 133.37710733 180.48442735 130.0522087 181.44364333 126.72756529 C182.45619247 123.2149176 183.46419227 119.70096465 184.47273254 116.18716431 C186.17068269 110.27375808 187.87152291 104.36118985 189.57446289 98.44921875 C191.95140174 90.19736842 194.32331308 81.94407975 196.69409597 73.69045901 C200.07290962 61.92858224 203.45430362 50.16744639 206.84057617 38.40771484 C207.15824448 37.30346664 207.47591278 36.19921844 207.8032074 35.06150818 C211.1728222 23.36564158 214.59188666 11.68496002 218 0 C257.6 0 297.2 0 338 0 C338 94.38 338 188.76 338 286 C308.3 286 278.6 286 248 286 C248 244.42 248 202.84 248 160 C245.69 160 243.38 160 241 160 C240.79262207 160.88919632 240.79262207 160.88919632 240.58105469 161.7963562 C237.83888656 173.15515292 234.49781037 184.34839348 231.25 195.5703125 C230.58869559 197.86086152 229.92756575 200.15146094 229.26660156 202.44210815 C227.88605403 207.22496232 226.50413767 212.0074179 225.12109375 216.78955078 C223.35406619 222.89940092 221.58934073 229.00991272 219.82550049 235.12068367 C218.13441573 240.97910958 216.44228325 246.83723269 214.75 252.6953125 C214.43035278 253.80206455 214.11070557 254.9088166 213.78137207 256.0491066 C212.87044075 259.20233577 211.95877817 262.35535255 211.046875 265.50830078 C210.78185181 266.42597229 210.51682861 267.3436438 210.24377441 268.28912354 C209.99156128 269.16060028 209.73934814 270.03207703 209.47949219 270.92996216 C209.26492371 271.67209017 209.05035522 272.41421818 208.82928467 273.17883492 C207.57140386 277.45805237 206.28164779 281.7278407 205 286 C181.24 286 157.48 286 133 286 C127.89032645 269.39356098 122.85560897 252.79816756 118.09375 236.09375 C117.47757015 233.93847346 116.86123373 231.78324168 116.24475098 229.62805176 C114.97265641 225.17862721 113.70241838 220.72867839 112.43359375 216.27832031 C110.8053255 210.56781879 109.17219456 204.85872055 107.53774261 199.14998627 C106.27310041 194.730936 105.01095572 190.31117551 103.74958801 185.89118958 C103.1475022 183.78255554 102.5446321 181.67414527 101.94096375 179.56596375 C101.10587798 176.64821189 100.27415587 173.72952247 99.44335938 170.81054688 C99.19410706 169.94221222 98.94485474 169.07387756 98.68804932 168.17922974 C97 162.22856375 97 162.22856375 97 160 C94.69 160 92.38 160 90 160 C90 201.58 90 243.16 90 286 C60.3 286 30.6 286 0 286 C0 191.62 0 97.24 0 0 Z " fill="#FEFEFE" transform="translate(1871,469)"/>
<path d="M0 0 C35.97 0 71.94 0 109 0 C115.89743072 10.92093198 122.77291916 21.81728113 129.4375 32.875 C130.89968676 35.29378998 132.36361544 37.71152207 133.828125 40.12890625 C134.18529099 40.71860703 134.54245697 41.3083078 134.91044617 41.9158783 C138.13595123 47.23567546 141.40405052 52.52833328 144.6875 57.8125 C149.16462594 65.0179507 153.59708531 72.24895932 158 79.5 C162.46605762 86.85473645 166.96153687 94.18971918 171.5 101.5 C175.47157713 107.8982483 179.4205332 114.30935716 183.33349609 120.74365234 C184.51797887 122.69002647 185.70575192 124.63440248 186.89697266 126.57666016 C189.69515717 131.14888269 192.43449871 135.73674794 195.046875 140.41796875 C195.52624512 141.25690674 196.00561523 142.09584473 196.49951172 142.96020508 C197.38876028 144.5213619 198.25665465 146.0949637 199.09814453 147.68237305 C199.49630371 148.37242432 199.89446289 149.06247559 200.3046875 149.7734375 C200.63452637 150.37591309 200.96436523 150.97838867 201.30419922 151.59912109 C203.67218109 153.81031278 203.67218109 153.81031278 211 154 C211 103.18 211 52.36 211 0 C241.36 0 271.72 0 303 0 C303 94.38 303 188.76 303 286 C267.69 286 232.38 286 196 286 C191.05 278.08 186.1 270.16 181 262 C176.54867758 254.95198556 176.54867758 254.95198556 172.09375 247.90625 C167.89248087 241.25424055 163.73245594 234.57643952 159.56640625 227.90234375 C155.72850981 221.75700037 151.87487269 215.62208883 148 209.5 C143.47413799 202.34938334 138.98112022 195.17873534 134.5 188 C128.03499099 177.64435463 121.5291122 167.31531315 115 157 C112.81174751 153.54214201 110.62441246 150.0837056 108.4375 146.625 C107.93645752 145.83375732 107.43541504 145.04251465 106.91918945 144.22729492 C106.21475708 143.11318237 106.21475708 143.11318237 105.49609375 141.9765625 C105.05120605 141.28594727 104.60631836 140.59533203 104.14794922 139.88378906 C103 138 103 138 101.66015625 135.0234375 C99.58054656 132.0152953 99.58054656 132.0152953 92 132 C92 182.82 92 233.64 92 286 C61.64 286 31.28 286 0 286 C0 191.62 0 97.24 0 0 Z " fill="#FEFEFE" transform="translate(2514,469)"/>
<path d="M0 0 C35.97 0 71.94 0 109 0 C115.89743072 10.92093198 122.77291916 21.81728113 129.4375 32.875 C130.89968676 35.29378998 132.36361544 37.71152207 133.828125 40.12890625 C134.18529099 40.71860703 134.54245697 41.3083078 134.91044617 41.9158783 C138.13595123 47.23567546 141.40405052 52.52833328 144.6875 57.8125 C149.16462594 65.0179507 153.59708531 72.24895932 158 79.5 C162.46605762 86.85473645 166.96153687 94.18971918 171.5 101.5 C175.47157713 107.8982483 179.4205332 114.30935716 183.33349609 120.74365234 C184.51797887 122.69002647 185.70575192 124.63440248 186.89697266 126.57666016 C189.69515717 131.14888269 192.43449871 135.73674794 195.046875 140.41796875 C195.52624512 141.25690674 196.00561523 142.09584473 196.49951172 142.96020508 C197.38876028 144.5213619 198.25665465 146.0949637 199.09814453 147.68237305 C199.49630371 148.37242432 199.89446289 149.06247559 200.3046875 149.7734375 C200.63452637 150.37591309 200.96436523 150.97838867 201.30419922 151.59912109 C203.67218109 153.81031278 203.67218109 153.81031278 211 154 C211 103.18 211 52.36 211 0 C241.36 0 271.72 0 303 0 C303 94.38 303 188.76 303 286 C267.69 286 232.38 286 196 286 C191.05 278.08 186.1 270.16 181 262 C176.54867758 254.95198556 176.54867758 254.95198556 172.09375 247.90625 C167.89248087 241.25424055 163.73245594 234.57643952 159.56640625 227.90234375 C155.72850981 221.75700037 151.87487269 215.62208883 148 209.5 C143.47413799 202.34938334 138.98112022 195.17873534 134.5 188 C128.03499099 177.64435463 121.5291122 167.31531315 115 157 C112.81174751 153.54214201 110.62441246 150.0837056 108.4375 146.625 C107.93645752 145.83375732 107.43541504 145.04251465 106.91918945 144.22729492 C106.21475708 143.11318237 106.21475708 143.11318237 105.49609375 141.9765625 C105.05120605 141.28594727 104.60631836 140.59533203 104.14794922 139.88378906 C103 138 103 138 101.66015625 135.0234375 C99.58054656 132.0152953 99.58054656 132.0152953 92 132 C92 182.82 92 233.64 92 286 C61.64 286 31.28 286 0 286 C0 191.62 0 97.24 0 0 Z " fill="#FEFEFE" transform="translate(2697,134)"/>
<path d="M0 0 C23.244375 -0.020625 46.48875 -0.04125 70.4375 -0.0625 C77.7277124 -0.071604 85.0179248 -0.08070801 92.52905273 -0.09008789 C101.5567627 -0.09460449 101.5567627 -0.09460449 105.80726624 -0.09544373 C108.7228423 -0.09636074 111.63839944 -0.10004809 114.55397034 -0.10557556 C129.01444887 -0.13169222 143.4656855 -0.12927843 157.91821289 0.42797852 C158.88625319 0.46473914 159.8542935 0.50149977 160.85166836 0.53937435 C195.5273029 2.07977275 233.90575806 10.72000269 260 35 C260.51369141 35.46744629 261.02738281 35.93489258 261.55664062 36.41650391 C284.93825593 57.84965127 296.12382594 86.95860243 300 118 C300.0942627 118.72968994 300.18852539 119.45937988 300.28564453 120.21118164 C301.16839256 127.8535056 301.24331978 135.50150854 301.25 143.1875 C301.25067474 143.88942474 301.25134949 144.59134949 301.25204468 145.31454468 C301.19398302 183.59671371 291.74543811 221.03418743 264.375 249.125 C236.6402573 276.672016 194.40536679 287.26422701 156.29320526 287.2488575 C154.75210996 287.24176892 153.21101551 287.23449317 151.66992188 287.22705078 C149.97589375 287.22643626 148.28186512 287.22670825 146.58783722 287.2277813 C142.10315017 287.22822777 137.61857262 287.21674378 133.13391113 287.20256042 C128.90600284 287.1910626 124.67811947 287.19062837 120.45019531 287.18920898 C108.13344937 287.17876724 95.81672325 287.15084472 83.5 287.125 C55.945 287.08375 28.39 287.0425 0 287 C0 192.29 0 97.58 0 0 Z M95 80 C95 122.24 95 164.48 95 208 C143.2395525 211.34960961 143.2395525 211.34960961 187 194 C187.62261719 193.52433594 188.24523438 193.04867187 188.88671875 192.55859375 C193.17885466 188.8644633 195.68366609 184.33999125 198.25 179.375 C198.7442749 178.43539429 198.7442749 178.43539429 199.24853516 177.47680664 C204.40197075 166.93137487 205.53788023 155.78181768 205.4375 144.1875 C205.42722778 142.35372803 205.42722778 142.35372803 205.41674805 140.48291016 C205.11762444 123.58634771 201.35257318 108.82330048 189.4375 96.3203125 C164.72703532 72.79785093 125.68954615 80 95 80 Z " fill="#FEFEFE" transform="translate(2095,133)"/>
<path d="M0 0 C85.14 0 170.28 0 258 0 C258 25.08 258 50.16 258 76 C204.21 76 150.42 76 95 76 C95 87.88 95 99.76 95 112 C146.81 112 198.62 112 252 112 C252 132.46 252 152.92 252 174 C200.19 174 148.38 174 95 174 C95 185.88 95 197.76 95 210 C148.79 210 202.58 210 258 210 C258 235.08 258 260.16 258 286 C172.86 286 87.72 286 0 286 C0 191.62 0 97.24 0 0 Z " fill="#FEFEFE" transform="translate(2232,469)"/>
<path d="M0 0 C85.14 0 170.28 0 258 0 C258 25.08 258 50.16 258 76 C204.21 76 150.42 76 95 76 C95 87.88 95 99.76 95 112 C146.81 112 198.62 112 252 112 C252 132.46 252 152.92 252 174 C200.19 174 148.38 174 95 174 C95 185.88 95 197.76 95 210 C148.79 210 202.58 210 258 210 C258 235.08 258 260.16 258 286 C172.86 286 87.72 286 0 286 C0 191.62 0 97.24 0 0 Z " fill="#FEFEFE" transform="translate(2416,134)"/>
<path d="M0 0 C1.12751678 -0.00570007 2.25503357 -0.01140015 3.41671753 -0.01727295 C5.79847288 -0.02667605 8.18024096 -0.03323815 10.56201172 -0.03710938 C14.12101511 -0.04671662 17.67941536 -0.07774503 21.23828125 -0.109375 C58.05052519 -0.28020638 100.43367903 4.46020687 128.0546875 31.515625 C147.75009718 51.7477756 152.0546875 78.07081946 152.0546875 105.203125 C124.0046875 105.203125 95.9546875 105.203125 67.0546875 105.203125 C65.4046875 101.243125 63.7546875 97.283125 62.0546875 93.203125 C54.62021991 82.58245701 43.50996379 78.46920275 31.0546875 76.203125 C13.52373333 73.55868782 -9.77356303 72.58290037 -24.9453125 83.203125 C-28.99915176 86.94585567 -30.758057 90.36177925 -31.3203125 95.890625 C-31.24714094 100.85714494 -29.24050568 104.55542279 -25.9453125 108.203125 C-13.74666401 117.04503298 2.83098646 117.82599037 17.33181763 120.0652771 C21.1060043 120.64855571 24.87823677 121.2432495 28.65014648 121.84106445 C37.50442038 123.2427402 46.36097885 124.62960426 55.21923828 126.00585938 C125.98484444 137.02021782 125.98484444 137.02021782 146.5703125 164.4296875 C159.88235688 183.35677764 162.45977513 207.13409689 158.8046875 229.59765625 C154.29443916 251.27973553 143.43993303 268.2947337 125.1953125 281.23046875 C97.64661744 299.08229726 62.41970453 304.28533962 30.171875 304.40625 C28.95936066 304.41195007 27.74684631 304.41765015 26.49758911 304.42352295 C23.93769183 304.43292339 21.37778271 304.43948708 18.81787109 304.44335938 C14.98902916 304.45297596 11.16074562 304.48401131 7.33203125 304.515625 C-33.31410008 304.69121821 -77.35998948 299.64404673 -108.0703125 270.453125 C-118.86266604 259.36005573 -125.06241528 245.62872681 -128.3203125 230.640625 C-128.48813232 229.9175415 -128.65595215 229.19445801 -128.82885742 228.44946289 C-130.74912741 218.63256186 -129.9453125 209.48287334 -129.9453125 199.203125 C-101.8953125 199.203125 -73.8453125 199.203125 -44.9453125 199.203125 C-43.9553125 202.173125 -42.9653125 205.143125 -41.9453125 208.203125 C-37.84672293 216.82165446 -31.64625671 220.95976643 -22.9375 224.38671875 C-0.56343713 231.89055065 31.03533871 233.27402316 53.00390625 223.37109375 C57.82831063 220.62348059 61.97501467 217.47033375 64.0546875 212.203125 C64.73999612 207.37408986 64.5743715 203.35076051 62.5546875 198.890625 C52.9065945 188.51892502 38.06447763 186.75685969 24.67869949 184.71068001 C22.33434332 184.35228858 19.99209797 183.98204816 17.6499939 183.60923767 C13.50089729 182.95070819 9.35030745 182.3022196 5.19909668 181.65716553 C-34.5049969 175.48676579 -34.5049969 175.48676579 -48.140625 172.53125 C-49.00521332 172.34389786 -49.86980164 172.15654572 -50.7605896 171.96351624 C-74.71797245 166.52568046 -99.29563105 156.27506673 -113.078125 134.89453125 C-124.51309881 115.56696806 -126.7963457 90.10738991 -121.4453125 68.390625 C-114.01740574 44.20431808 -98.58841742 28.14471308 -76.48046875 16.35546875 C-53.13310381 4.56950849 -25.9538049 0.10462145 0 0 Z " fill="#FEFEFE" transform="translate(3277.9453125,459.796875)"/>
<path d="M0 0 C44.92125 -0.0928125 44.92125 -0.0928125 90.75 -0.1875 C104.88602051 -0.22846802 104.88602051 -0.22846802 119.30761719 -0.27026367 C130.89697266 -0.28381348 130.89697266 -0.28381348 136.3381958 -0.28633118 C140.10403852 -0.2891039 143.86975183 -0.30025652 147.63555908 -0.31672668 C152.463805 -0.33755837 157.29186722 -0.34342726 162.1201539 -0.33921683 C163.87667198 -0.34009508 165.6331976 -0.34589158 167.38967657 -0.35764539 C183.37821152 -0.45952132 199.36850216 1.09699135 214.75 5.6875 C215.61214111 5.94023682 216.47428223 6.19297363 217.36254883 6.45336914 C241.49984839 13.87594014 261.89681703 29.50650377 274.3359375 51.6015625 C281.87311784 66.99439558 286.10081969 84.11283652 286.203125 101.2421875 C286.20882507 102.00943146 286.21452515 102.77667542 286.22039795 103.56716919 C286.22978725 105.18571625 286.23635756 106.80428191 286.24023438 108.42285156 C286.24983811 110.83434936 286.28087646 113.24495511 286.3125 115.65625 C286.40884769 129.68838538 285.0557356 143.79663449 280.375 157.125 C279.99541138 158.22255615 279.99541138 158.22255615 279.6081543 159.34228516 C274.66735174 172.95257663 267.32203677 183.93413057 257 194 C256.27167969 194.73734375 255.54335937 195.4746875 254.79296875 196.234375 C239.10727584 211.25073407 216.83161002 218.07189887 195.9375 221.6875 C195.25461914 221.80697998 194.57173828 221.92645996 193.86816406 222.04956055 C180.84398098 224.14979371 167.72042124 224.14005386 154.5703125 224.09765625 C152.84154298 224.09578601 151.11277293 224.09436498 149.38400269 224.09336853 C144.88293944 224.08959103 140.38190962 224.07980278 135.88085938 224.06866455 C130.45406281 224.05652541 125.02725493 224.05202545 119.60044861 224.04621124 C111.40027599 224.03658741 103.20017637 224.01739783 95 224 C95 244.46 95 264.92 95 286 C63.65 286 32.3 286 0 286 C0 191.62 0 97.24 0 0 Z M95 79 C95 100.78 95 122.56 95 145 C104.44625 145.04125 113.8925 145.0825 123.625 145.125 C128.05413818 145.15231201 128.05413818 145.15231201 132.57275391 145.18017578 C134.95735493 145.1860262 137.34195798 145.19112045 139.7265625 145.1953125 C140.92885498 145.20554443 142.13114746 145.21577637 143.36987305 145.22631836 C158.08913094 145.22929255 172.14193837 144.39184137 183.27734375 133.8984375 C189.72403969 126.79391544 191.23110144 117.21662872 190.8828125 107.84765625 C189.74569703 98.831955 186.28162069 91.267708 179.0625 85.5625 C171.80353476 80.65854257 164.9280918 78.87026328 156.19018555 78.88647461 C155.52621262 78.88632858 154.86223969 78.88618256 154.17814636 78.8860321 C151.99763651 78.88672517 149.81721356 78.89448901 147.63671875 78.90234375 C146.1192886 78.90421008 144.60185785 78.90563297 143.08442688 78.90663147 C139.10108765 78.91043968 135.1177852 78.92025541 131.13446045 78.93133545 C126.34948232 78.94339009 121.56449186 78.94795989 116.77950287 78.95378876 C109.51964304 78.96346813 102.25986383 78.98263652 95 79 Z " fill="#FEFEFE" transform="translate(994,469)"/>
<path d="M0 0 C44.22 0 88.44 0 134 0 C152 49 152 49 160.8125 73 C167.36347709 90.83758486 173.92869681 108.66989397 180.5 126.5 C188.90486377 149.30515873 197.29361182 172.11618514 205.67027283 194.93171692 C208.75292163 203.32782295 211.83705489 211.72338309 214.92198181 220.11865234 C216.8501143 225.366006 218.77759917 230.6135952 220.70336914 235.86181641 C225.20120116 248.11862728 225.20120116 248.11862728 229.7303009 260.36390686 C230.7908751 263.22021053 231.84833654 266.07766148 232.9055481 268.93521118 C233.60206846 270.81317189 234.3037549 272.68921403 235.00561523 274.56518555 C235.40852783 275.65484619 235.81144043 276.74450684 236.2265625 277.8671875 C236.57283691 278.79644043 236.91911133 279.72569336 237.27587891 280.68310547 C238 283 238 283 238 286 C205.66 286 173.32 286 140 286 C128 251 128 251 128 248 C87.74 248 47.48 248 6 248 C5.01 251.63 4.02 255.26 3 259 C0.03 267.91 -2.94 276.82 -6 286 C-38.67 286 -71.34 286 -105 286 C-96.94477561 262.98507318 -96.94477561 262.98507318 -93.0234375 252.26953125 C-92.58002518 251.05469559 -92.13661285 249.83985992 -91.67976379 248.58821106 C-90.4926729 245.33635044 -89.30380376 242.08514293 -88.1144371 238.83411407 C-87.36329086 236.78048733 -86.61267165 234.72666868 -85.86221313 232.67279053 C-76.52850011 207.12873149 -67.13302772 181.6076029 -57.7207489 156.09239197 C-53.40783593 144.39865972 -49.1088034 132.69984298 -44.8125 121 C-44.07454468 118.99064113 -43.33658895 116.9812824 -42.59863281 114.97192383 C-39.64737671 106.93549123 -36.6968537 98.89878968 -33.74707031 90.86181641 C-25.70656382 68.95487162 -17.66067622 47.04992278 -9.5798645 25.1578064 C-8.82287479 23.10669652 -8.06625801 21.05544896 -7.31002808 19.00405884 C-6.26903234 16.1806655 -5.22654152 13.35782899 -4.18359375 10.53515625 C-3.71934998 9.27490631 -3.71934998 9.27490631 -3.24572754 7.98919678 C-1.1145068 2.2290136 -1.1145068 2.2290136 0 0 Z M59 89 C51.8149517 109.93517155 44.66406642 130.88187878 37.63284302 151.86929321 C36.96112653 153.87256433 36.28784814 155.87531241 35.61300659 157.87753296 C34.66725332 160.68512026 33.72735792 163.49460045 32.7890625 166.3046875 C32.50536301 167.14347946 32.22166351 167.98227142 31.92936707 168.84648132 C30.44086725 173.32680106 30.44086725 173.32680106 30 178 C54.42 178 78.84 178 104 178 C102.21165784 171.44274543 100.43538717 165.01217725 98.27270508 158.59106445 C98.01867416 157.82867966 97.76464325 157.06629486 97.50291443 156.2808075 C96.67796683 153.80733747 95.84880166 151.33530495 95.01953125 148.86328125 C94.4406289 147.13031164 93.86199466 145.39725244 93.28361511 143.66410828 C91.77220673 139.13746199 90.25719647 134.61202949 88.74139404 130.08685303 C87.19062327 125.45512391 85.6433157 120.82223824 84.09570312 116.18945312 C81.06716121 107.12517571 78.03448742 98.06228875 75 89 C69.72 89 64.44 89 59 89 Z " fill="#FEFEFE" transform="translate(1359,469)"/>
<path d="M0 0 C44.22 0 88.44 0 134 0 C152 49 152 49 160.8125 73 C167.36347709 90.83758486 173.92869681 108.66989397 180.5 126.5 C188.90486377 149.30515873 197.29361182 172.11618514 205.67027283 194.93171692 C208.75292163 203.32782295 211.83705489 211.72338309 214.92198181 220.11865234 C216.8501143 225.366006 218.77759917 230.6135952 220.70336914 235.86181641 C225.20120116 248.11862728 225.20120116 248.11862728 229.7303009 260.36390686 C230.7908751 263.22021053 231.84833654 266.07766148 232.9055481 268.93521118 C233.60206846 270.81317189 234.3037549 272.68921403 235.00561523 274.56518555 C235.40852783 275.65484619 235.81144043 276.74450684 236.2265625 277.8671875 C236.57283691 278.79644043 236.91911133 279.72569336 237.27587891 280.68310547 C238 283 238 283 238 286 C205.66 286 173.32 286 140 286 C128 251 128 251 128 248 C87.74 248 47.48 248 6 248 C5.01 251.63 4.02 255.26 3 259 C0.03 267.91 -2.94 276.82 -6 286 C-38.67 286 -71.34 286 -105 286 C-96.94477561 262.98507318 -96.94477561 262.98507318 -93.0234375 252.26953125 C-92.58002518 251.05469559 -92.13661285 249.83985992 -91.67976379 248.58821106 C-90.4926729 245.33635044 -89.30380376 242.08514293 -88.1144371 238.83411407 C-87.36329086 236.78048733 -86.61267165 234.72666868 -85.86221313 232.67279053 C-76.52850011 207.12873149 -67.13302772 181.6076029 -57.7207489 156.09239197 C-53.40783593 144.39865972 -49.1088034 132.69984298 -44.8125 121 C-44.07454468 118.99064113 -43.33658895 116.9812824 -42.59863281 114.97192383 C-39.64737671 106.93549123 -36.6968537 98.89878968 -33.74707031 90.86181641 C-25.70656382 68.95487162 -17.66067622 47.04992278 -9.5798645 25.1578064 C-8.82287479 23.10669652 -8.06625801 21.05544896 -7.31002808 19.00405884 C-6.26903234 16.1806655 -5.22654152 13.35782899 -4.18359375 10.53515625 C-3.71934998 9.27490631 -3.71934998 9.27490631 -3.24572754 7.98919678 C-1.1145068 2.2290136 -1.1145068 2.2290136 0 0 Z M59 89 C51.8149517 109.93517155 44.66406642 130.88187878 37.63284302 151.86929321 C36.96112653 153.87256433 36.28784814 155.87531241 35.61300659 157.87753296 C34.66725332 160.68512026 33.72735792 163.49460045 32.7890625 166.3046875 C32.50536301 167.14347946 32.22166351 167.98227142 31.92936707 168.84648132 C30.44086725 173.32680106 30.44086725 173.32680106 30 178 C54.42 178 78.84 178 104 178 C102.21165784 171.44274543 100.43538717 165.01217725 98.27270508 158.59106445 C98.01867416 157.82867966 97.76464325 157.06629486 97.50291443 156.2808075 C96.67796683 153.80733747 95.84880166 151.33530495 95.01953125 148.86328125 C94.4406289 147.13031164 93.86199466 145.39725244 93.28361511 143.66410828 C91.77220673 139.13746199 90.25719647 134.61202949 88.74139404 130.08685303 C87.19062327 125.45512391 85.6433157 120.82223824 84.09570312 116.18945312 C81.06716121 107.12517571 78.03448742 98.06228875 75 89 C69.72 89 64.44 89 59 89 Z " fill="#FEFEFE" transform="translate(1099,134)"/>
<path d="M0 0 C0.82773926 0.18723633 1.65547852 0.37447266 2.50830078 0.56738281 C35.62873391 8.26424445 65.76349097 27.42110771 84.1875 56.3125 C92.79589236 70.87387337 98.68791987 86.21305524 102.25 102.75 C102.41330811 103.50571289 102.57661621 104.26142578 102.74487305 105.04003906 C103.97162185 111.08162985 104.43326349 116.76589843 105 123 C74.97 123 44.94 123 14 123 C12.35 119.04 10.7 115.08 9 111 C2.59156197 97.56904757 -5.47328427 88.82131633 -19.5 83.1875 C-37.84485743 76.7253486 -57.43397431 76.94316672 -75.45703125 84.4375 C-91.340366 92.27553945 -101.6359837 104.57804373 -107.875 121.125 C-114.56517847 141.62352663 -113.76860993 163.00044347 -104.72265625 182.71484375 C-96.08078424 199.19514843 -82.9569282 208.94633706 -65.78515625 215.1640625 C-48.66325718 219.87974641 -27.94999887 218.1580456 -12.30078125 209.53125 C0.02916787 201.32523972 6.85575399 190.62165516 12 177 C12.66 175.35 13.32 173.7 14 172 C44.03 172 74.06 172 105 172 C102.66570091 191.84154224 102.66570091 191.84154224 100.75 199.0625 C100.53384033 199.89483154 100.31768066 200.72716309 100.0949707 201.5847168 C91.49864769 233.66846214 72.93466188 261.85178935 43.86230469 278.9296875 C20.11845217 292.57586598 -6.89692218 300.05327456 -34.328125 300.203125 C-35.19111206 300.21018463 -36.05409912 300.21724426 -36.9432373 300.22451782 C-73.11312459 300.45333312 -73.11312459 300.45333312 -88 297 C-89.31822754 296.70198486 -89.31822754 296.70198486 -90.66308594 296.39794922 C-115.5025906 290.61073478 -138.35408475 280.35431731 -158 264 C-158.89460938 263.25878906 -159.78921875 262.51757812 -160.7109375 261.75390625 C-166.90646961 256.40668546 -172.03196143 250.48905038 -177 244 C-177.6909375 243.10152344 -178.381875 242.20304688 -179.09375 241.27734375 C-192.60084996 223.22458515 -200.64763857 203.04253655 -205 181 C-205.2781958 179.61131714 -205.2781958 179.61131714 -205.56201172 178.19458008 C-207.31586333 168.33405398 -207.39699846 158.54549536 -207.375 148.5625 C-207.37478851 147.67770966 -207.37457703 146.79291931 -207.37435913 145.88131714 C-207.34177206 132.21776029 -206.52220476 119.26141696 -203 106 C-202.71914551 104.86498047 -202.71914551 104.86498047 -202.43261719 103.70703125 C-199.81413327 93.1969162 -195.91534053 83.6331897 -191 74 C-190.505 73.01257813 -190.01 72.02515625 -189.5 71.0078125 C-172.49143484 38.37724999 -141.8416758 15.5885558 -107.34082031 4.11572266 C-100.95957063 2.12172595 -94.51960601 0.47390433 -88 -1 C-87.22688477 -1.17934082 -86.45376953 -1.35868164 -85.65722656 -1.54345703 C-58.77479536 -7.43605786 -26.68426077 -6.24211099 0 0 Z " fill="#FEFEFE" transform="translate(1854,129)"/>
<path d="M0 0 C0.82773926 0.18723633 1.65547852 0.37447266 2.50830078 0.56738281 C35.62873391 8.26424445 65.76349097 27.42110771 84.1875 56.3125 C92.79589236 70.87387337 98.68791987 86.21305524 102.25 102.75 C102.41330811 103.50571289 102.57661621 104.26142578 102.74487305 105.04003906 C103.97162185 111.08162985 104.43326349 116.76589843 105 123 C74.97 123 44.94 123 14 123 C12.35 119.04 10.7 115.08 9 111 C2.59156197 97.56904757 -5.47328427 88.82131633 -19.5 83.1875 C-37.84485743 76.7253486 -57.43397431 76.94316672 -75.45703125 84.4375 C-91.340366 92.27553945 -101.6359837 104.57804373 -107.875 121.125 C-114.56517847 141.62352663 -113.76860993 163.00044347 -104.72265625 182.71484375 C-96.08078424 199.19514843 -82.9569282 208.94633706 -65.78515625 215.1640625 C-48.66325718 219.87974641 -27.94999887 218.1580456 -12.30078125 209.53125 C0.02916787 201.32523972 6.85575399 190.62165516 12 177 C12.66 175.35 13.32 173.7 14 172 C44.03 172 74.06 172 105 172 C102.66570091 191.84154224 102.66570091 191.84154224 100.75 199.0625 C100.53384033 199.89483154 100.31768066 200.72716309 100.0949707 201.5847168 C91.49864769 233.66846214 72.93466188 261.85178935 43.86230469 278.9296875 C20.11845217 292.57586598 -6.89692218 300.05327456 -34.328125 300.203125 C-35.19111206 300.21018463 -36.05409912 300.21724426 -36.9432373 300.22451782 C-73.11312459 300.45333312 -73.11312459 300.45333312 -88 297 C-89.31822754 296.70198486 -89.31822754 296.70198486 -90.66308594 296.39794922 C-115.5025906 290.61073478 -138.35408475 280.35431731 -158 264 C-158.89460938 263.25878906 -159.78921875 262.51757812 -160.7109375 261.75390625 C-166.90646961 256.40668546 -172.03196143 250.48905038 -177 244 C-177.6909375 243.10152344 -178.381875 242.20304688 -179.09375 241.27734375 C-192.60084996 223.22458515 -200.64763857 203.04253655 -205 181 C-205.2781958 179.61131714 -205.2781958 179.61131714 -205.56201172 178.19458008 C-207.31586333 168.33405398 -207.39699846 158.54549536 -207.375 148.5625 C-207.37478851 147.67770966 -207.37457703 146.79291931 -207.37435913 145.88131714 C-207.34177206 132.21776029 -206.52220476 119.26141696 -203 106 C-202.71914551 104.86498047 -202.71914551 104.86498047 -202.43261719 103.70703125 C-199.81413327 93.1969162 -195.91534053 83.6331897 -191 74 C-190.505 73.01257813 -190.01 72.02515625 -189.5 71.0078125 C-181.83058706 56.2942105 -170.30342477 41.1292743 -157 31 C-155.99710938 30.23429687 -154.99421875 29.46859375 -153.9609375 28.6796875 C-134.17804246 13.91965922 -112.12933081 4.16842453 -88 -1 C-87.27522461 -1.16371094 -86.55044922 -1.32742187 -85.80371094 -1.49609375 C-58.79315442 -7.3349099 -26.81145971 -6.27186598 0 0 Z " fill="#FEFEFE" transform="translate(1525,129)"/>
<path d="M0 0 C99 0 198 0 300 0 C300 26.07 300 52.14 300 79 C266.34 79 232.68 79 198 79 C198 147.31 198 215.62 198 286 C166.65 286 135.3 286 103 286 C103 217.69 103 149.38 103 79 C69.01 79 35.02 79 0 79 C0 52.93 0 26.86 0 0 Z " fill="#FEFEFE" transform="translate(2839,469)"/>
<path d="M0 0 C99 0 198 0 300 0 C300 26.07 300 52.14 300 79 C266.34 79 232.68 79 198 79 C198 147.31 198 215.62 198 286 C166.65 286 135.3 286 103 286 C103 217.69 103 149.38 103 79 C69.01 79 35.02 79 0 79 C0 52.93 0 26.86 0 0 Z " fill="#FEFEFE" transform="translate(3023,134)"/>
<path d="M0 0 C12.86454667 -0.3946377 25.72764544 -0.69630463 38.5970211 -0.88080692 C44.57385999 -0.96938531 50.5465474 -1.08939338 56.52099609 -1.2824707 C62.29208367 -1.46779933 68.05919274 -1.56894123 73.83302689 -1.61291313 C76.03035794 -1.64422412 78.2274808 -1.70538334 80.42310715 -1.79741096 C97.17467 -2.47132878 97.17467 -2.47132878 101.88456726 1.64843941 C105.12760197 5.6931843 107.2376056 10.13094333 109.14426804 14.92559052 C110.35611321 17.86326637 111.9342173 20.55198494 113.546875 23.28515625 C114.61590914 25.21020184 115.68360826 27.13598938 116.75 29.0625 C121.40768325 37.43097485 126.15030604 45.74136454 131 54 C137.09025918 64.37399844 142.99247714 74.84515972 148.84375 85.35546875 C150.75708359 88.78926017 152.68676882 92.21138127 154.65625 95.61328125 C155.03861816 96.27376465 155.42098633 96.93424805 155.81494141 97.61474609 C156.78678072 99.28580835 157.7642077 100.95361774 158.7421875 102.62109375 C160 105 160 105 160 107 C162.64 107 165.28 107 168 107 C168.20109375 106.23300781 168.4021875 105.46601562 168.609375 104.67578125 C170.57207875 99.48784802 173.40818303 94.93843504 176.25 90.1875 C181.22818995 81.76326635 186.1172969 73.30074843 190.875 64.75 C195.87116428 55.78621061 200.91046563 46.84850951 206 37.9375 C206.88727783 36.38144043 206.88727783 36.38144043 207.79248047 34.79394531 C208.72438442 33.16454118 209.65990506 31.53541612 210.67321777 29.95535278 C213.13444405 26.01261498 214.53491304 22.31617987 215.81103516 17.83837891 C218.23287809 10.7223941 221.07514005 3.73621631 228 0 C242.84483508 -4.65311336 260.49141988 -2.34372858 275.78106689 -1.64794922 C281.77911911 -1.40103112 287.77956558 -1.29253823 293.78125 -1.171875 C305.52719579 -0.91555824 317.26237943 -0.50682938 329 0 C320.56982535 14.77826493 320.56982535 14.77826493 316.81640625 21.18359375 C316.47173813 21.77189468 316.12707001 22.36019562 315.7719574 22.96632385 C315.05757692 24.18520831 314.34282455 25.40387488 313.62768555 26.62231445 C312.56509145 28.4330839 311.50414955 30.24481394 310.44335938 32.05664062 C306.46281295 38.84838076 302.4427323 45.61501561 298.38609314 52.36157227 C294.27225455 59.2043271 290.19807678 66.07043096 286.125 72.9375 C285.30016859 74.32749673 284.47529783 75.71747012 283.65039062 77.10742188 C281.94548757 79.98021674 280.24074962 82.85310949 278.53613281 85.72607422 C274.91793114 91.82390076 271.29764678 97.92049051 267.6774292 104.01712036 C265.70152559 107.34469117 263.72577065 110.67235024 261.75 114 C260.95833404 115.33333375 260.16666737 116.66666709 259.375 118 C258.983125 118.66 258.59125 119.32 258.1875 120 C257 122 255.8125 124 254.625 126 C254.23318542 126.65989929 253.84137085 127.31979858 253.43768311 127.99969482 C252.64540985 129.33404764 251.85313282 130.66839823 251.06085205 132.00274658 C249.09093548 135.32046355 247.12108273 138.63821837 245.15136719 141.95605469 C241.47884091 148.14199412 237.80569978 154.32756589 234.13037109 160.51184082 C232.41552915 163.39739835 230.70103836 166.28316445 228.98657227 169.16894531 C228.17799011 170.52972602 227.36924054 171.89040725 226.56030273 173.25097656 C225.43038642 175.15143137 224.30107705 177.05224573 223.171875 178.953125 C222.5334668 180.02723633 221.89505859 181.10134766 221.23730469 182.20800781 C220.90465103 182.79430969 220.57199738 183.38061157 220.22926331 183.98468018 C219 186 219 186 217.213974 188.39178467 C210.55815126 198.01050974 211.00496754 207.16920544 211.09765625 218.421875 C211.08805233 220.15708396 211.07532224 221.89227847 211.05944824 223.62744141 C211.02273637 230.00152196 211.04612604 236.37583475 211.0625 242.75 C211.041875 257.0225 211.02125 271.295 211 286 C179.65 286 148.3 286 116 286 C116.5625 242.8125 116.5625 242.8125 116.87329102 229.37426758 C117.08169523 205.51254424 114.49362706 188.99158909 100.02972412 169.73532104 C97.39678762 166.18709173 95.1900219 162.47286711 93.00390625 158.640625 C92.33246582 157.52751953 91.66102539 156.41441406 90.96923828 155.26757812 C88.8079735 151.68136837 86.66500114 148.08468675 84.52734375 144.484375 C84.15552475 143.85814743 83.78370575 143.23191986 83.40061951 142.5867157 C82.24595494 140.64131655 81.09170951 138.69566916 79.9375 136.75 C79.10703534 135.35065523 78.27654991 133.95132279 77.44604492 132.55200195 C68.97726679 118.28149024 60.51883679 104.0048474 52.06152344 89.72753906 C43.81480696 75.80628639 35.56120911 61.88916397 27.29867554 47.97729492 C20.85418832 37.12639799 14.41696695 26.27121917 7.98632812 15.41210938 C7.37208984 14.37505859 6.75785156 13.33800781 6.125 12.26953125 C5.59132813 11.36823486 5.05765625 10.46693848 4.5078125 9.53833008 C3.46192353 7.77762613 2.39243153 6.0308128 1.3046875 4.2956543 C0 2 0 2 0 0 Z " fill="#FEFEFE" transform="translate(1531,469)"/>
<path d="M0 0 C71.94 0 143.88 0 218 0 C218 0.99 218 1.98 218 3 C216.02053408 4.36363208 214.0180755 5.69418644 212 7 C204.06792521 14.93207479 203.87908487 30.63949505 203.84938049 41.02250671 C203.88316129 43.51736864 203.9281209 46.01209746 203.98266602 48.5065918 C204.00454764 49.89651176 204.02519016 51.28645169 204.04470825 52.67640686 C204.08701033 55.64025252 204.13415865 58.60396726 204.18408394 61.56769371 C204.25946527 66.27439503 204.29994829 70.98101135 204.33177185 75.68818665 C204.33724378 76.48801505 204.3427157 77.28784346 204.34835345 78.11190909 C204.37034463 81.40257558 204.39138053 84.69324797 204.41245377 87.98392045 C204.47374142 97.26142848 204.56672274 106.53630187 204.75073242 115.81225586 C204.8974814 123.22223255 204.97522855 130.62948245 204.97537369 138.04095775 C204.97798986 141.94715682 205.0131396 145.84632247 205.13293648 149.7508297 C205.9182217 176.4395089 205.9182217 176.4395089 196.30661678 186.77553272 C193.05906999 189.83284268 189.70534157 192.65300662 186.15203667 195.34740639 C182.45606993 198.18561593 179.50314461 201.38074509 176.5625 205 C173.88784311 208.13130563 171.19987382 210.42618845 168 213 C166.98319689 213.98290968 165.97261781 214.97334787 165 216 C164.34 215.67 163.68 215.34 163 215 C163.00553076 213.74544321 163.00553076 213.74544321 163.01117325 212.46554184 C163.09946093 192.1269226 163.16567874 171.78833633 163.20724869 151.44956589 C163.22788528 141.61393101 163.25602681 131.77842394 163.30175781 121.94287109 C163.34159203 113.37148843 163.36742483 104.80019832 163.37635398 96.22872567 C163.38157453 91.68898581 163.39386738 87.14951075 163.42292023 82.60985565 C163.45003545 78.33842697 163.45845295 74.06737259 163.45243073 69.79586601 C163.45353272 68.22689468 163.46150996 66.65791105 163.4768219 65.08901405 C163.49669008 62.94859023 163.49195235 60.80958423 163.48101807 58.66912842 C163.48654882 56.8716321 163.48654882 56.8716321 163.49219131 55.03782272 C162.90177069 51.39372509 161.88702138 50.22450077 159 48 C155.28028863 47.07733722 151.94766149 47.51401975 148.5625 49.25 C145.26337101 52.94502446 145.84840067 57.67707486 145.84178162 62.39044189 C145.83684364 63.13706612 145.83190566 63.88369035 145.82681805 64.65293956 C145.8114554 67.15566842 145.80308577 69.65837164 145.79467773 72.16113281 C145.78509824 73.95480576 145.77508812 75.74847645 145.76467896 77.54214478 C145.73763155 82.41363896 145.71662107 87.28514282 145.69667697 92.15667057 C145.67481643 97.24694142 145.64742807 102.33718243 145.62062073 107.4274292 C145.57069478 117.06750596 145.52575557 126.70759929 145.48259836 136.34770846 C145.43322517 147.32221914 145.37830734 158.29669987 145.32291877 169.27118158 C145.20910022 191.84742645 145.10226088 214.42370004 145 237 C144.01 237.33 143.02 237.66 142 238 C141.67 238.99 141.34 239.98 141 241 C139.609375 242.33203125 139.609375 242.33203125 137.75 243.8125 C132.88238335 247.90271145 128.70472771 252.55194426 124.48144531 257.28833008 C123.94487305 257.88154053 123.40830078 258.47475098 122.85546875 259.0859375 C122.13846802 259.8910376 122.13846802 259.8910376 121.40698242 260.71240234 C120 262 120 262 117 263 C116.99780016 261.37437449 116.99780016 261.37437449 116.99555588 259.71590805 C116.95899128 233.36862676 116.89958172 207.02147288 116.81609726 180.67429733 C116.7762562 167.93309055 116.74388947 155.19194599 116.72900391 142.45068359 C116.71601364 131.34782039 116.68911629 120.2450938 116.64538693 109.14230752 C116.62271303 103.26125124 116.60709287 97.38036382 116.60811615 91.49925995 C116.60885926 85.96706144 116.59104922 80.43523706 116.55883217 74.9031353 C116.5502933 72.86978548 116.54861008 70.8363939 116.55419731 68.80303383 C116.56079884 66.03204552 116.54300949 63.26226105 116.51898193 60.49139404 C116.53062256 59.27738596 116.53062256 59.27738596 116.54249835 58.03885245 C116.48700161 54.43705559 116.31099473 52.40720212 114.09256363 49.502491 C111.19150873 47.41949156 109.369164 47.43370901 105.90234375 47.6015625 C103.00233861 48.20895577 101.71691329 49.66499792 100 52 C98.31110824 55.37778353 98.87680179 59.21063365 98.89561462 62.9250946 C98.89632117 63.86108154 98.89702772 64.79706847 98.89775568 65.76141864 C98.90114713 68.91738632 98.9115108 72.07329532 98.92163086 75.22924805 C98.92514497 77.48416569 98.9281127 79.73908425 98.93057251 81.9940033 C98.93625699 86.86019627 98.9442751 91.72637824 98.95359612 96.59256554 C98.96674259 104.28599351 98.96505009 111.97937118 98.95936584 119.67280579 C98.95844576 120.96992876 98.95752568 122.26705174 98.95657772 123.60348147 C98.95410657 126.92640095 98.95151375 130.24932031 98.94886537 133.57223965 C98.94399096 139.72581242 98.93964452 145.87938492 98.93676758 152.03295898 C98.93627763 153.06027032 98.93627763 153.06027032 98.93577779 154.10833541 C98.93126964 165.20011133 98.95204664 176.29171336 98.98128145 187.38344529 C99.01062438 198.77078529 99.00896621 210.15777153 98.98107058 221.54514152 C98.96650414 227.93900686 98.96639901 234.33215149 99.00047112 240.72595787 C99.03225193 246.74187414 99.02687878 252.75660733 98.99296951 258.77250099 C98.98714644 260.98038601 98.99500649 263.18835593 99.01756096 265.39613342 C99.04634933 268.41218005 99.02590825 271.42406963 98.99327087 274.43998718 C99.01336478 275.31315116 99.03345868 276.18631514 99.05416149 277.08593863 C98.96670006 280.8732873 98.75031927 283.12057478 96.2405082 286.06224406 C94.22844012 287.83151393 92.16484907 289.42408951 90 291 C88.50221513 292.41809053 87.01805052 293.85109213 85.5625 295.3125 C84.57443359 296.29669922 84.57443359 296.29669922 83.56640625 297.30078125 C81.91965896 298.9295024 81.91965896 298.9295024 81 301 C80.01 301 79.02 301 78 301 C78 300.34 78 299.68 78 299 C77.4225 298.731875 76.845 298.46375 76.25 298.1875 C75.5075 297.795625 74.765 297.40375 74 297 C73.3037426 296.67688056 72.6074852 296.35376112 71.89012909 296.02085018 C68.76758791 292.68235444 69.45829795 288.88061149 69.50793457 284.47889709 C69.50325558 283.49093641 69.49857659 282.50297573 69.49375582 281.48507684 C69.48278221 278.15914185 69.50034758 274.8339564 69.51757812 271.50805664 C69.5153934 269.12989579 69.51139842 266.75173601 69.50572205 264.37358093 C69.49602091 258.57528138 69.5042643 252.77719915 69.51938236 246.97891624 C69.53556681 240.22892056 69.52585839 233.47903864 69.51357108 226.72904377 C69.49197849 214.68597096 69.48527879 202.64294322 69.49072266 190.59985352 C69.49104329 189.87887049 69.49136392 189.15788746 69.49169427 188.41505646 C69.4944069 182.56539045 69.49783801 176.71572491 69.50129986 170.8660593 C69.50429476 165.7542122 69.50700306 160.64236506 69.50927734 155.53051758 C69.50960285 154.81071443 69.50992837 154.09091128 69.51026374 153.34929592 C69.51520367 141.35294258 69.50453776 129.35665189 69.48270559 117.36031812 C69.47113684 110.62302437 69.46827997 103.88592378 69.4858551 97.14863777 C69.50214197 90.81457191 69.50076348 84.48076637 69.48565865 78.14669991 C69.48352079 75.81822804 69.48828991 73.48973838 69.5003643 71.16129684 C69.51588658 67.98989386 69.50706144 64.81947013 69.49206543 61.64808655 C69.50779877 60.2562189 69.50779877 60.2562189 69.52384996 58.83623272 C69.50656311 53.77122537 69.50656311 53.77122537 67.09424591 49.42800045 C63.75400207 47.15039318 60.8931452 47.32849241 57 48 C53.76386646 49.74253345 53.17604685 50.47185944 52 54 C51.89376172 56.97499843 51.84513945 59.92717063 51.84178162 62.90263367 C51.83684364 63.82399622 51.83190566 64.74535878 51.82681805 65.69464141 C51.81140944 68.79471676 51.80307332 71.89477135 51.79467773 74.99487305 C51.78510186 77.212038 51.77509195 79.42920112 51.76467896 81.6463623 C51.7375924 87.67697234 51.71660315 93.70759023 51.69667697 99.73822761 C51.67484053 106.03634057 51.6474404 112.33442922 51.62062073 118.63252258 C51.57634325 129.2072341 51.53551336 139.7819546 51.49731445 150.35668945 C51.45795796 161.24927748 51.41653136 172.14185439 51.37231445 183.03442383 C51.36959018 183.70570966 51.36686591 184.3769955 51.36405908 185.06862333 C51.35037958 188.43622759 51.33665931 191.80383169 51.32291877 195.17143571 C51.20905009 223.11426772 51.1022217 251.05712313 51 279 C46.73844752 276.6032651 42.96665373 274.33030204 39.25 271.125 C33.16733187 266.01351417 26.76154143 261.38633564 20.28613281 256.78564453 C19.48788086 256.20927246 18.68962891 255.63290039 17.8671875 255.0390625 C17.14644043 254.52553223 16.42569336 254.01200195 15.68310547 253.48291016 C14 252 14 252 13 249 C12.91026021 246.19449173 12.87847032 243.41448275 12.89320374 240.60917664 C12.8940388 239.3093283 12.8940388 239.3093283 12.89489073 237.9832204 C12.89793634 235.06780574 12.90812621 232.15245872 12.91821289 229.23706055 C12.92176791 227.15098645 12.9248542 225.0649115 12.92750549 222.97883606 C12.93406652 218.47881259 12.94363302 213.97880883 12.95540047 209.47879601 C12.97367801 202.35466823 12.98328937 195.23054528 12.99131775 188.10639954 C13.015477 167.84491871 13.05122202 147.58346702 13.09594727 127.32202148 C13.1205594 116.13744493 13.13788442 104.95288003 13.14750665 93.76828033 C13.15402596 86.69628801 13.16953728 79.62439173 13.19182408 72.55243242 C13.20361929 68.13446423 13.20692532 63.71651887 13.20792198 59.2985363 C13.21005571 57.26129743 13.2155994 55.22405858 13.2249527 53.18684006 C13.53251761 27.67536649 13.53251761 27.67536649 3 5 C2.01 4.34 1.02 3.68 0 3 C0 2.01 0 1.02 0 0 Z " fill="#FEFEFE" transform="translate(409,281)"/>
<path d="M0 0 C31.35 0 62.7 0 95 0 C95 94.38 95 188.76 95 286 C63.65 286 32.3 286 0 286 C0 191.62 0 97.24 0 0 Z " fill="#FFFFFF" transform="translate(1977,134)"/>
<path d="M0 0 C96.69 0 193.38 0 293 0 C293 4.95 293 9.9 293 15 C292.34 15 291.68 15 291 15 C290.9175 15.969375 290.835 16.93875 290.75 17.9375 C289.76870907 24.69750418 286.42577972 31.20303925 282.53298283 36.76597118 C280.94309841 39.00194574 280.94309841 39.00194574 279.61111355 41.54375935 C276.91162661 45.57250273 274.46925976 48.38235283 269.71721768 49.57100272 C262.41474033 50.52562935 255.04031159 50.26190071 247.69360352 50.15112305 C245.19308816 50.14993875 242.69256745 50.15314856 240.19206238 50.16041565 C234.11783895 50.16680913 228.04548596 50.12728296 221.97168875 50.06706407 C214.89898393 49.99932423 207.82651537 49.98757711 200.75353181 49.97893129 C188.13882971 49.96194596 175.52477439 49.89963228 162.91040039 49.80932617 C150.66594662 49.7217525 138.42172782 49.65807681 126.17700195 49.62475586 C125.04419961 49.62166311 125.04419961 49.62166311 123.88851238 49.61850788 C120.85305649 49.61030581 117.81760027 49.60224267 114.78214351 49.5943707 C91.55052841 49.53366265 68.31872975 49.45159415 45.08754158 49.29604149 C42.64858508 49.28028102 40.20961731 49.26617022 37.77064133 49.25378799 C34.45463098 49.23647819 31.13872598 49.21294765 27.82276917 49.18754578 C26.84643306 49.18363742 25.87009695 49.17972906 24.8641749 49.17570227 C23.98096062 49.16754424 23.09774634 49.1593862 22.18776798 49.15098095 C21.03883756 49.14341944 21.03883756 49.14341944 19.86669642 49.13570517 C18 49 18 49 16 48 C16 47.34 16 46.68 16 46 C15.01 45.67 14.02 45.34 13 45 C10.87890625 42.59375 10.87890625 42.59375 8.5625 39.5 C7.80066406 38.4996875 7.03882813 37.499375 6.25390625 36.46875 C-2.35587259 23.21834513 0 18.05169405 0 0 Z " fill="#FEFEFE" transform="translate(372,230)"/>
</svg>
